# Blender 3.5.1
# www.blender.org
mtllib body_t-101.mtl
o Body
v 1.015268 -0.011692 -2.881268
v 1.030523 1.000000 -2.647719
v 1.015268 -0.011692 1.158131
v -0.004911 -0.011692 -2.881268
v -0.004911 -0.011692 1.158131
v -0.004911 1.000000 1.000000
v -0.004911 1.000000 -3.088537
v 1.015268 0.586838 -3.634266
v 1.030523 1.000000 1.000000
v 1.015268 0.587595 1.545998
v -0.004911 0.587595 1.545998
v -0.004911 0.586838 -3.845468
v 1.554088 0.586838 -3.356536
v 1.033526 1.000000 -2.599605
v 1.033526 1.000000 1.000000
v 1.554088 0.587595 1.000000
v -1.015268 -0.011692 -2.881268
v -1.030523 1.000000 -2.647719
v -1.015268 -0.011692 1.158131
v 0.004911 -0.011692 -2.881268
v 0.004911 -0.011692 1.158131
v 0.004911 1.000000 1.000000
v 0.004911 1.000000 -3.088537
v -1.015268 0.586838 -3.634266
v -1.030523 1.000000 1.000000
v -1.015268 0.587595 1.545998
v 0.004911 0.587595 1.545998
v 0.004911 0.586838 -3.845468
v -1.554088 0.586838 -3.356536
v -1.033526 1.000000 -2.599605
v -1.033526 1.000000 1.000000
v -1.554088 0.587595 1.000000
vn -0.0000 0.7980 0.6027
vn 0.1349 0.8949 -0.4253
vn 0.0861 0.9586 -0.2713
vn 0.1308 0.9571 -0.2584
vn 0.1679 0.8999 -0.4025
vn -0.0000 -1.0000 -0.0000
vn -0.0000 1.0000 -0.0000
vn 0.0591 -0.8189 -0.5709
vn -1.0000 -0.0000 -0.0000
vn -0.0000 -0.5433 0.8395
vn 1.0000 -0.0000 -0.0000
vn 0.6213 0.7836 -0.0001
vn 0.0446 0.9962 -0.0742
vn 0.2196 0.9047 -0.3651
vn -0.0000 -1.0000 0.0002
vn 0.5273 0.6694 0.5233
vn -0.1349 0.8949 -0.4253
vn -0.1679 0.8999 -0.4025
vn -0.1308 0.9571 -0.2584
vn -0.0861 0.9586 -0.2713
vn -0.0591 -0.8189 -0.5709
vn -0.6213 0.7836 -0.0001
vn -0.2196 0.9047 -0.3651
vn -0.0446 0.9962 -0.0742
vn -0.5273 0.6694 0.5233
vt 0.125000 0.750000
vt 0.375000 1.000000
vt 0.375000 0.000000
vt 0.625000 1.000000
vt 0.875000 0.750000
vt 0.125000 0.500000
vt 0.375000 0.250000
vt 0.375000 0.750000
vt 0.375000 0.500000
vt 0.625000 0.500000
vt 0.625000 0.750000
vt 0.504138 1.000000
vt 0.504138 0.000000
vt 0.625000 0.250000
vt 0.875000 0.500000
vt 0.504138 0.250000
vt 0.504138 0.500000
vt 0.504138 0.750000
vt 0.504138 1.000000
vt 0.504138 0.000000
vt 0.625000 0.000000
vt 0.625000 1.000000
vt 0.875000 0.750000
vt 0.625000 0.250000
vt 0.875000 0.500000
vt 0.504138 0.250000
vt 0.125000 0.750000
vt 0.375000 1.000000
vt 0.375000 0.000000
vt 0.625000 1.000000
vt 0.875000 0.750000
vt 0.125000 0.500000
vt 0.375000 0.250000
vt 0.375000 0.750000
vt 0.375000 0.500000
vt 0.625000 0.500000
vt 0.625000 0.750000
vt 0.504138 1.000000
vt 0.504138 0.000000
vt 0.625000 0.250000
vt 0.875000 0.500000
vt 0.504138 0.250000
vt 0.504138 0.500000
vt 0.504138 0.750000
vt 0.504138 1.000000
vt 0.504138 0.000000
vt 0.625000 0.000000
vt 0.625000 1.000000
vt 0.875000 0.750000
vt 0.625000 0.250000
vt 0.875000 0.500000
vt 0.504138 0.250000
s 1
f 10/16/1 9/14/1 6/10/1 11/17/1
f 12/18/2 7/11/3 2/4/4 8/12/5
f 3/6/6 5/9/6 4/8/6 1/1/6
f 6/10/7 9/15/7 2/5/4 7/11/3
f 4/8/8 12/18/8 8/12/8 1/2/8
f 5/9/9 11/17/9 12/18/9 4/8/9
f 3/7/10 10/16/10 11/17/10 5/9/10
f 1/3/11 8/13/11 10/16/11 3/7/11
f 7/11/9 12/18/9 11/17/9 6/10/9
f 13/20/12 14/21/12 15/24/12 16/26/12
f 8/12/5 2/4/4 14/22/13 13/19/14
f 10/16/15 8/13/15 13/20/15 16/26/15
f 9/14/16 10/16/16 16/26/16 15/24/16
f 2/5/4 9/15/7 15/25/7 14/23/13
f 26/42/1 27/43/1 22/36/1 25/40/1
f 28/44/17 24/38/18 18/30/19 23/37/20
f 19/32/6 17/27/6 20/34/6 21/35/6
f 22/36/7 23/37/20 18/31/19 25/41/7
f 20/34/21 17/28/21 24/38/21 28/44/21
f 21/35/11 20/34/11 28/44/11 27/43/11
f 19/33/10 21/35/10 27/43/10 26/42/10
f 17/29/9 19/33/9 26/42/9 24/39/9
f 23/37/11 22/36/11 27/43/11 28/44/11
f 29/46/22 32/52/22 31/50/22 30/47/22
f 24/38/18 29/45/23 30/48/24 18/30/19
f 26/42/15 32/52/15 29/46/15 24/39/15
f 25/40/25 31/50/25 32/52/25 26/42/25
f 18/31/19 30/49/24 31/51/7 25/41/7
