# Blender 3.5.1
# www.blender.org
mtllib luk_t-101.mtl
o Luk
v 0.321368 1.634642 -1.014076
v 0.321368 1.540964 -1.014076
v 0.136813 1.634642 -1.081248
v 0.136813 1.540964 -1.081248
v 0.038614 1.634642 -1.251335
v 0.038614 1.540964 -1.251335
v 0.072718 1.634642 -1.444751
v 0.072718 1.540964 -1.444751
v 0.223169 1.634642 -1.570994
v 0.223169 1.540964 -1.570994
v 0.419568 1.634642 -1.570994
v 0.419568 1.540964 -1.570994
v 0.570018 1.634642 -1.444751
v 0.570018 1.540964 -1.444751
v 0.604123 1.634642 -1.251335
v 0.604123 1.540964 -1.251335
v 0.505923 1.634642 -1.081248
v 0.505923 1.540964 -1.081248
vn -0.3420 -0.0000 0.9397
vn -0.8660 -0.0000 0.5000
vn -0.9848 -0.0000 -0.1736
vn -0.6428 -0.0000 -0.7660
vn -0.0000 -0.0000 -1.0000
vn 0.6428 -0.0000 -0.7660
vn 0.9848 -0.0000 -0.1736
vn -0.0000 -1.0000 -0.0000
vn 0.8660 -0.0000 0.5000
vn 0.3420 -0.0000 0.9397
vn -0.0000 1.0000 -0.0000
vt 1.000000 0.500000
vt 0.000000 0.500000
vt 0.750000 0.490000
vt 1.000000 1.000000
vt 0.250000 0.490000
vt 0.000000 1.000000
vt 0.888889 0.500000
vt 0.904269 0.433851
vt 0.888889 1.000000
vt 0.404269 0.433851
vt 0.777778 0.500000
vt 0.986354 0.291676
vt 0.777778 1.000000
vt 0.486354 0.291676
vt 0.666667 0.500000
vt 0.957846 0.130000
vt 0.666667 1.000000
vt 0.457846 0.130000
vt 0.555556 0.500000
vt 0.832085 0.024474
vt 0.555556 1.000000
vt 0.332085 0.024474
vt 0.444444 0.500000
vt 0.667915 0.024474
vt 0.444444 1.000000
vt 0.167915 0.024474
vt 0.333333 0.500000
vt 0.542154 0.130000
vt 0.333333 1.000000
vt 0.042154 0.130000
vt 0.222222 0.500000
vt 0.513646 0.291676
vt 0.013646 0.291676
vt 0.222222 1.000000
vt 0.111111 0.500000
vt 0.595731 0.433851
vt 0.095731 0.433851
vt 0.111111 1.000000
s 0
f 1/1/1 3/7/1 4/9/1 2/4/1
f 3/7/2 5/11/2 6/13/2 4/9/2
f 5/11/3 7/15/3 8/17/3 6/13/3
f 7/15/4 9/19/4 10/21/4 8/17/4
f 9/19/5 11/23/5 12/25/5 10/21/5
f 11/23/6 13/27/6 14/29/6 12/25/6
f 13/27/7 15/31/7 16/34/7 14/29/7
f 4/10/8 6/14/8 8/18/8 10/22/8 12/26/8 14/30/8 16/33/8 18/37/8 2/5/8
f 15/31/9 17/35/9 18/38/9 16/34/9
f 17/35/10 1/2/10 2/6/10 18/38/10
f 1/3/11 17/36/11 15/32/11 13/28/11 11/24/11 9/20/11 7/16/11 5/12/11 3/8/11
