# Blender 3.5.1
# www.blender.org
o forTracks
v 2.184382 0.307790 -3.165988
v 2.184382 0.279129 -3.165988
v 2.184382 0.307790 2.112649
v 2.184382 0.279129 2.112649
v 1.438274 0.307790 -3.165988
v 1.438274 0.279129 -3.165988
v 1.438274 0.307790 2.112649
v 1.438274 0.279129 2.112649
v 2.184382 -0.023249 -3.680347
v 2.184382 -0.051910 -3.680347
v 1.438274 -0.051910 -3.680347
v 1.438274 -0.023249 -3.680347
v 2.184382 -0.187219 2.216434
v 2.184382 -0.158558 2.216434
v 1.438274 -0.158558 2.216434
v 1.438274 -0.187219 2.216434
v -2.184382 0.307790 -3.165988
v -2.184382 0.279129 -3.165988
v -2.184382 0.307790 2.112649
v -2.184382 0.279129 2.112649
v -1.438274 0.307790 -3.165988
v -1.438274 0.279129 -3.165988
v -1.438274 0.307790 2.112649
v -1.438274 0.279129 2.112649
v -2.184382 -0.023249 -3.680347
v -2.184382 -0.051910 -3.680347
v -1.438274 -0.051910 -3.680347
v -1.438274 -0.023249 -3.680347
v -2.184382 -0.187219 2.216434
v -2.184382 -0.158558 2.216434
v -1.438274 -0.158558 2.216434
v -1.438274 -0.187219 2.216434
vn -0.0000 0.2172 0.9761
vn -0.0000 -1.0000 -0.0000
vn -0.0000 1.0000 -0.0000
vn -0.0000 -0.0000 1.0000
vn -0.0000 -0.8409 0.5412
vn -0.0000 0.8409 -0.5412
vn -0.0000 -0.2172 -0.9761
vn -0.0000 -0.1093 -0.9940
vn -1.0000 -0.0000 -0.0000
vn -0.0000 -0.0000 -1.0000
vn 1.0000 -0.0000 -0.0000
vt 0.125000 0.750000
vt 0.875000 0.750000
vt 0.125000 0.500000
vt 0.875000 0.500000
vt 0.375000 0.750000
vt 0.625000 0.750000
vt 0.375000 0.500000
vt 0.625000 0.500000
vt 0.375000 1.000000
vt 0.125000 0.750000
vt 0.625000 1.000000
vt 0.875000 0.750000
vt 0.625000 0.750000
vt 0.375000 0.750000
vt 0.875000 0.500000
vt 0.125000 0.500000
vt 0.375000 0.500000
vt 0.625000 0.500000
vt 0.125000 0.750000
vt 0.875000 0.750000
vt 0.125000 0.500000
vt 0.875000 0.500000
vt 0.375000 0.750000
vt 0.625000 0.750000
vt 0.375000 0.500000
vt 0.625000 0.500000
vt 0.375000 1.000000
vt 0.125000 0.750000
vt 0.625000 1.000000
vt 0.875000 0.750000
vt 0.625000 0.750000
vt 0.375000 0.750000
vt 0.875000 0.500000
vt 0.125000 0.500000
vt 0.375000 0.500000
vt 0.625000 0.500000
s 1
f 4/4/1 8/8/1 16/18/1 13/15/1
f 3/3/2 7/7/2 5/5/2 1/1/2
f 8/8/3 4/4/3 2/2/3 6/6/3
f 12/14/4 11/13/4 10/11/4 9/9/4
f 1/1/5 5/5/5 12/14/5 9/10/5
f 6/6/6 2/2/6 10/12/6 11/13/6
f 7/7/7 3/3/7 14/16/8 15/17/8
f 3/3/9 1/1/9 2/2/9 4/4/9
f 15/17/8 14/16/8 13/15/10 16/18/10
f 20/22/1 29/33/1 32/36/1 24/26/1
f 19/21/2 17/19/2 21/23/2 23/25/2
f 24/26/3 22/24/3 18/20/3 20/22/3
f 28/32/4 25/27/4 26/29/4 27/31/4
f 17/19/5 25/28/5 28/32/5 21/23/5
f 22/24/6 27/31/6 26/30/6 18/20/6
f 23/25/7 31/35/8 30/34/8 19/21/7
f 19/21/11 20/22/11 18/20/11 17/19/11
f 31/35/8 32/36/10 29/33/10 30/34/8
