# Blender 3.5.1
# www.blender.org
o Cube.001
v -1.483880 -0.758158 -3.188197
v 1.483880 -0.758158 -3.188197
v 1.483880 -0.417809 -3.838464
v 1.483880 0.160805 -3.814651
v -1.483880 0.160805 -3.814651
v -1.483880 -0.417809 -3.838464
v -1.483880 0.942239 -3.188197
v 1.483880 0.942239 -3.188197
v 1.483880 0.934010 -3.272340
v 1.483880 0.152576 -3.898794
v -1.483880 -0.426038 -3.922607
v -1.483880 -0.766387 -3.272340
v 1.483880 -0.766387 -3.272340
v 1.483880 -0.426038 -3.922607
v -1.483880 0.152576 -3.898794
v -1.483880 0.934010 -3.272340
vn -0.0000 -0.6255 0.7802
vn -0.0000 -0.0411 0.9992
vn -0.0000 0.8860 0.4637
vn -0.0000 0.6255 -0.7802
vn -0.0000 0.0411 -0.9992
vn -0.0000 -0.8860 -0.4637
vn -1.0000 -0.0000 -0.0000
vn 1.0000 -0.0000 -0.0000
vn -0.0000 0.9953 -0.0973
vn -0.0000 -0.9953 0.0973
vt 0.375000 0.750000
vt 0.375000 0.000000
vt 0.458333 0.000000
vt 0.541667 0.000000
vt 0.541667 0.750000
vt 0.458333 0.750000
vt 0.625000 0.750000
vt 0.875000 0.750000
vt 0.875000 0.750000
vt 0.541667 0.000000
vt 0.458333 0.750000
vt 0.375000 0.750000
vt 0.375000 0.000000
vt 0.458333 0.000000
vt 0.541667 0.750000
vt 0.625000 0.750000
s 1
f 4/4/1 8/8/1 7/7/1 5/5/1
f 3/3/2 4/4/2 5/5/2 6/6/2
f 6/6/3 1/1/3 2/2/3 3/3/3
f 10/10/4 15/15/4 16/16/4 9/9/4
f 14/14/5 11/11/5 15/15/5 10/10/5
f 11/11/6 14/14/6 13/13/6 12/12/6
f 5/5/7 7/7/7 16/16/7 15/15/7
f 6/6/7 5/5/7 15/15/7 11/11/7
f 3/3/8 2/2/8 13/13/8 14/14/8
f 1/1/7 6/6/7 11/11/7 12/12/7
f 7/7/9 8/8/9 9/9/9 16/16/9
f 4/4/8 3/3/8 14/14/8 10/10/8
f 2/2/10 1/1/10 12/12/10 13/13/10
f 8/8/8 4/4/8 10/10/8 9/9/8
