# Blender 3.5.1
# www.blender.org
o turrent-protection
v -1.021764 0.703518 1.624072
v -0.449979 0.703518 2.806865
v -1.021764 1.481589 1.624072
v -0.449979 1.481589 2.806865
v -1.033066 1.481589 1.629535
v -1.033066 0.703518 1.629535
v -0.461281 0.703518 2.812329
v -0.461281 1.481589 2.812329
v 1.021764 0.703518 1.624072
v 0.449979 0.703518 2.806865
v 1.021764 1.481589 1.624072
v 0.449979 1.481589 2.806865
v 1.033066 1.481589 1.629535
v 1.033066 0.703518 1.629535
v 0.461281 0.703518 2.812329
v 0.461281 1.481589 2.812329
vn 0.9003 -0.0000 -0.4352
vn -0.9003 -0.0000 0.4352
vn -0.0000 1.0000 -0.0000
vn -0.0000 -1.0000 -0.0000
vn 0.4352 -0.0000 0.9003
vn -0.4352 -0.0000 -0.9003
vn -0.9003 -0.0000 -0.4352
vn 0.9003 -0.0000 0.4352
vn -0.4352 -0.0000 0.9003
vn 0.4352 -0.0000 -0.9003
vt 0.000000 0.000000
vt 1.000000 0.000000
vt 0.000000 1.000000
vt 1.000000 1.000000
vt 0.000000 1.000000
vt 0.000000 0.000000
vt 1.000000 0.000000
vt 1.000000 1.000000
vt 0.000000 0.000000
vt 1.000000 0.000000
vt 0.000000 1.000000
vt 1.000000 1.000000
vt 0.000000 1.000000
vt 0.000000 0.000000
vt 1.000000 0.000000
vt 1.000000 1.000000
s 0
f 1/1/1 3/3/1 4/4/1 2/2/1
f 6/6/2 7/7/2 8/8/2 5/5/2
f 4/4/3 3/3/3 5/5/3 8/8/3
f 1/1/4 2/2/4 7/7/4 6/6/4
f 2/2/5 4/4/5 8/8/5 7/7/5
f 3/3/6 1/1/6 6/6/6 5/5/6
f 9/9/7 10/10/7 12/12/7 11/11/7
f 14/14/8 13/13/8 16/16/8 15/15/8
f 12/12/3 16/16/3 13/13/3 11/11/3
f 9/9/4 14/14/4 15/15/4 10/10/4
f 10/10/9 15/15/9 16/16/9 12/12/9
f 11/11/10 13/13/10 14/14/10 9/9/10
